<mxfile host="app.diagrams.net" modified="2021-05-06T07:30:39.584Z" agent="5.0 (Windows NT 10.0; Win64; x64) AppleWebKit/537.36 (KHTML, like Gecko) Chrome/88.0.4324.190 Safari/537.36" etag="iEiV-ZiQBUYPb3biEjqg" version="14.6.10" type="github">
  <diagram id="dsE-PpVP6D-OGsWYXRit" name="Page-1">
    <mxGraphModel dx="1038" dy="548" grid="0" gridSize="10" guides="1" tooltips="1" connect="1" arrows="1" fold="1" page="1" pageScale="1" pageWidth="3300" pageHeight="4681" math="0" shadow="0">
      <root>
        <mxCell id="0" />
        <mxCell id="1" parent="0" />
        <mxCell id="yGgz9N2xFHgXJwQMNSEJ-1" value="&lt;strong style=&quot;box-sizing: inherit; font-weight: 700; color: rgb(0, 0, 255); font-size: 16px; font-style: normal; letter-spacing: normal; text-align: left; text-indent: 0px; text-transform: none; word-spacing: 0px; background-color: rgb(255, 255, 255);&quot;&gt;12&amp;nbsp;&amp;nbsp; 1&amp;nbsp;&amp;nbsp; 9&amp;nbsp;&amp;nbsp; 2&amp;nbsp;&amp;nbsp; 0&amp;nbsp;&amp;nbsp; 11&amp;nbsp;&amp;nbsp; 7&amp;nbsp;&amp;nbsp; 19&amp;nbsp;&amp;nbsp; 4&amp;nbsp;&amp;nbsp; 15&amp;nbsp;&amp;nbsp; 18&amp;nbsp;&amp;nbsp; 5&amp;nbsp;&amp;nbsp; 14&amp;nbsp;&amp;nbsp; 13&amp;nbsp;&amp;nbsp; 10&amp;nbsp;&amp;nbsp; 16&amp;nbsp;&amp;nbsp; 6&amp;nbsp;&amp;nbsp; 3&amp;nbsp;&amp;nbsp; 8&amp;nbsp;&amp;nbsp; 17&lt;/strong&gt;" style="text;whiteSpace=wrap;html=1;" vertex="1" parent="1">
          <mxGeometry x="26.000024414062494" y="22.0000244140625" width="540" height="28" as="geometry" />
        </mxCell>
        <mxCell id="yGgz9N2xFHgXJwQMNSEJ-2" value="12" style="rounded=0;whiteSpace=wrap;html=1;fillColor=#ffffff;" vertex="1" parent="1">
          <mxGeometry x="124" y="95" width="56" height="26" as="geometry" />
        </mxCell>
        <mxCell id="yGgz9N2xFHgXJwQMNSEJ-3" value="1" style="rounded=0;whiteSpace=wrap;html=1;fillColor=#ffffff;" vertex="1" parent="1">
          <mxGeometry x="124" y="159" width="56" height="26" as="geometry" />
        </mxCell>
        <mxCell id="yGgz9N2xFHgXJwQMNSEJ-4" value="12" style="rounded=0;whiteSpace=wrap;html=1;fillColor=#ffffff;" vertex="1" parent="1">
          <mxGeometry x="180" y="159" width="56" height="26" as="geometry" />
        </mxCell>
        <mxCell id="yGgz9N2xFHgXJwQMNSEJ-5" value="1" style="rounded=0;whiteSpace=wrap;html=1;fillColor=#ffffff;" vertex="1" parent="1">
          <mxGeometry x="124" y="230" width="56" height="26" as="geometry" />
        </mxCell>
        <mxCell id="yGgz9N2xFHgXJwQMNSEJ-6" value="9" style="rounded=0;whiteSpace=wrap;html=1;fillColor=#ffffff;" vertex="1" parent="1">
          <mxGeometry x="180" y="230" width="56" height="26" as="geometry" />
        </mxCell>
        <mxCell id="yGgz9N2xFHgXJwQMNSEJ-7" value="12" style="rounded=0;whiteSpace=wrap;html=1;fillColor=#ffffff;" vertex="1" parent="1">
          <mxGeometry x="236" y="230" width="56" height="26" as="geometry" />
        </mxCell>
        <mxCell id="yGgz9N2xFHgXJwQMNSEJ-8" value="1" style="rounded=0;whiteSpace=wrap;html=1;fillColor=#ffffff;" vertex="1" parent="1">
          <mxGeometry x="124" y="305" width="56" height="26" as="geometry" />
        </mxCell>
        <mxCell id="yGgz9N2xFHgXJwQMNSEJ-9" value="9" style="rounded=0;whiteSpace=wrap;html=1;fillColor=#ffffff;" vertex="1" parent="1">
          <mxGeometry x="236" y="305" width="56" height="26" as="geometry" />
        </mxCell>
        <mxCell id="yGgz9N2xFHgXJwQMNSEJ-10" value="12" style="rounded=0;whiteSpace=wrap;html=1;fillColor=#ffffff;" vertex="1" parent="1">
          <mxGeometry x="292" y="305" width="56" height="26" as="geometry" />
        </mxCell>
        <mxCell id="yGgz9N2xFHgXJwQMNSEJ-11" value="2" style="rounded=0;whiteSpace=wrap;html=1;fillColor=#ffffff;" vertex="1" parent="1">
          <mxGeometry x="180" y="305" width="56" height="26" as="geometry" />
        </mxCell>
        <mxCell id="yGgz9N2xFHgXJwQMNSEJ-12" value="1" style="rounded=0;whiteSpace=wrap;html=1;fillColor=#ffffff;" vertex="1" parent="1">
          <mxGeometry x="392" y="305" width="56" height="26" as="geometry" />
        </mxCell>
        <mxCell id="yGgz9N2xFHgXJwQMNSEJ-13" value="9" style="rounded=0;whiteSpace=wrap;html=1;fillColor=#ffffff;" vertex="1" parent="1">
          <mxGeometry x="504" y="305" width="56" height="26" as="geometry" />
        </mxCell>
        <mxCell id="yGgz9N2xFHgXJwQMNSEJ-14" value="12" style="rounded=0;whiteSpace=wrap;html=1;fillColor=#ffffff;" vertex="1" parent="1">
          <mxGeometry x="560" y="305" width="56" height="26" as="geometry" />
        </mxCell>
        <mxCell id="yGgz9N2xFHgXJwQMNSEJ-16" style="edgeStyle=none;rounded=0;orthogonalLoop=1;jettySize=auto;html=1;exitX=0;exitY=1;exitDx=0;exitDy=0;entryX=0.5;entryY=0;entryDx=0;entryDy=0;" edge="1" parent="1" source="yGgz9N2xFHgXJwQMNSEJ-15" target="yGgz9N2xFHgXJwQMNSEJ-12">
          <mxGeometry relative="1" as="geometry" />
        </mxCell>
        <mxCell id="yGgz9N2xFHgXJwQMNSEJ-17" style="edgeStyle=none;rounded=0;orthogonalLoop=1;jettySize=auto;html=1;exitX=1;exitY=1;exitDx=0;exitDy=0;" edge="1" parent="1" source="yGgz9N2xFHgXJwQMNSEJ-15">
          <mxGeometry relative="1" as="geometry">
            <mxPoint x="558.800048828125" y="304.5999755859375" as="targetPoint" />
          </mxGeometry>
        </mxCell>
        <mxCell id="yGgz9N2xFHgXJwQMNSEJ-15" value="2" style="rounded=0;whiteSpace=wrap;html=1;fillColor=#ffffff;" vertex="1" parent="1">
          <mxGeometry x="466" y="220" width="56" height="26" as="geometry" />
        </mxCell>
        <mxCell id="yGgz9N2xFHgXJwQMNSEJ-18" value="1" style="rounded=0;whiteSpace=wrap;html=1;fillColor=#ffffff;" vertex="1" parent="1">
          <mxGeometry x="124" y="494" width="56" height="26" as="geometry" />
        </mxCell>
        <mxCell id="yGgz9N2xFHgXJwQMNSEJ-19" value="9" style="rounded=0;whiteSpace=wrap;html=1;fillColor=#ffffff;" vertex="1" parent="1">
          <mxGeometry x="236" y="494" width="56" height="26" as="geometry" />
        </mxCell>
        <mxCell id="yGgz9N2xFHgXJwQMNSEJ-20" value="12" style="rounded=0;whiteSpace=wrap;html=1;fillColor=#ffffff;" vertex="1" parent="1">
          <mxGeometry x="292" y="494" width="56" height="26" as="geometry" />
        </mxCell>
        <mxCell id="yGgz9N2xFHgXJwQMNSEJ-21" style="edgeStyle=none;rounded=0;orthogonalLoop=1;jettySize=auto;html=1;exitX=0;exitY=1;exitDx=0;exitDy=0;entryX=0.5;entryY=0;entryDx=0;entryDy=0;" edge="1" parent="1" source="yGgz9N2xFHgXJwQMNSEJ-23" target="yGgz9N2xFHgXJwQMNSEJ-18">
          <mxGeometry relative="1" as="geometry" />
        </mxCell>
        <mxCell id="yGgz9N2xFHgXJwQMNSEJ-22" style="edgeStyle=none;rounded=0;orthogonalLoop=1;jettySize=auto;html=1;exitX=1;exitY=1;exitDx=0;exitDy=0;" edge="1" parent="1" source="yGgz9N2xFHgXJwQMNSEJ-23">
          <mxGeometry relative="1" as="geometry">
            <mxPoint x="290.800048828125" y="493.5999755859375" as="targetPoint" />
          </mxGeometry>
        </mxCell>
        <mxCell id="yGgz9N2xFHgXJwQMNSEJ-23" value="2" style="rounded=0;whiteSpace=wrap;html=1;fillColor=#ffffff;" vertex="1" parent="1">
          <mxGeometry x="198" y="409" width="56" height="26" as="geometry" />
        </mxCell>
        <mxCell id="yGgz9N2xFHgXJwQMNSEJ-24" value="1" style="rounded=0;whiteSpace=wrap;html=1;fillColor=#ffffff;" vertex="1" parent="1">
          <mxGeometry x="448" y="494" width="56" height="26" as="geometry" />
        </mxCell>
        <mxCell id="yGgz9N2xFHgXJwQMNSEJ-25" value="9" style="rounded=0;whiteSpace=wrap;html=1;fillColor=#ffffff;" vertex="1" parent="1">
          <mxGeometry x="560" y="494" width="56" height="26" as="geometry" />
        </mxCell>
        <mxCell id="yGgz9N2xFHgXJwQMNSEJ-26" value="12" style="rounded=0;whiteSpace=wrap;html=1;fillColor=#ffffff;" vertex="1" parent="1">
          <mxGeometry x="616" y="494" width="56" height="26" as="geometry" />
        </mxCell>
        <mxCell id="yGgz9N2xFHgXJwQMNSEJ-27" style="edgeStyle=none;rounded=0;orthogonalLoop=1;jettySize=auto;html=1;exitX=0;exitY=1;exitDx=0;exitDy=0;entryX=1;entryY=0;entryDx=0;entryDy=0;" edge="1" parent="1" source="yGgz9N2xFHgXJwQMNSEJ-29" target="yGgz9N2xFHgXJwQMNSEJ-30">
          <mxGeometry relative="1" as="geometry" />
        </mxCell>
        <mxCell id="yGgz9N2xFHgXJwQMNSEJ-28" style="edgeStyle=none;rounded=0;orthogonalLoop=1;jettySize=auto;html=1;exitX=1;exitY=1;exitDx=0;exitDy=0;" edge="1" parent="1" source="yGgz9N2xFHgXJwQMNSEJ-29">
          <mxGeometry relative="1" as="geometry">
            <mxPoint x="614.800048828125" y="493.5999755859375" as="targetPoint" />
          </mxGeometry>
        </mxCell>
        <mxCell id="yGgz9N2xFHgXJwQMNSEJ-29" value="2" style="rounded=0;whiteSpace=wrap;html=1;fillColor=#ffffff;" vertex="1" parent="1">
          <mxGeometry x="510" y="409" width="56" height="26" as="geometry" />
        </mxCell>
        <mxCell id="yGgz9N2xFHgXJwQMNSEJ-30" value="0" style="rounded=0;whiteSpace=wrap;html=1;fillColor=#f8cecc;strokeColor=#b85450;" vertex="1" parent="1">
          <mxGeometry x="392" y="494" width="56" height="26" as="geometry" />
        </mxCell>
        <mxCell id="yGgz9N2xFHgXJwQMNSEJ-31" value="1" style="rounded=0;whiteSpace=wrap;html=1;fillColor=#ffffff;" vertex="1" parent="1">
          <mxGeometry x="142" y="673" width="56" height="26" as="geometry" />
        </mxCell>
        <mxCell id="yGgz9N2xFHgXJwQMNSEJ-32" value="9" style="rounded=0;whiteSpace=wrap;html=1;fillColor=#ffffff;" vertex="1" parent="1">
          <mxGeometry x="254" y="673" width="56" height="26" as="geometry" />
        </mxCell>
        <mxCell id="yGgz9N2xFHgXJwQMNSEJ-33" value="12" style="rounded=0;whiteSpace=wrap;html=1;fillColor=#ffffff;" vertex="1" parent="1">
          <mxGeometry x="310" y="673" width="56" height="26" as="geometry" />
        </mxCell>
        <mxCell id="yGgz9N2xFHgXJwQMNSEJ-34" style="edgeStyle=none;rounded=0;orthogonalLoop=1;jettySize=auto;html=1;exitX=0;exitY=1;exitDx=0;exitDy=0;entryX=1;entryY=0;entryDx=0;entryDy=0;" edge="1" parent="1" source="yGgz9N2xFHgXJwQMNSEJ-36" target="yGgz9N2xFHgXJwQMNSEJ-37">
          <mxGeometry relative="1" as="geometry" />
        </mxCell>
        <mxCell id="yGgz9N2xFHgXJwQMNSEJ-35" style="edgeStyle=none;rounded=0;orthogonalLoop=1;jettySize=auto;html=1;exitX=1;exitY=1;exitDx=0;exitDy=0;" edge="1" parent="1" source="yGgz9N2xFHgXJwQMNSEJ-36">
          <mxGeometry relative="1" as="geometry">
            <mxPoint x="308.800048828125" y="672.5999755859375" as="targetPoint" />
          </mxGeometry>
        </mxCell>
        <mxCell id="yGgz9N2xFHgXJwQMNSEJ-36" value="2" style="rounded=0;whiteSpace=wrap;html=1;fillColor=#ffffff;" vertex="1" parent="1">
          <mxGeometry x="204" y="588" width="56" height="26" as="geometry" />
        </mxCell>
        <mxCell id="yGgz9N2xFHgXJwQMNSEJ-37" value="0" style="rounded=0;whiteSpace=wrap;html=1;" vertex="1" parent="1">
          <mxGeometry x="86" y="673" width="56" height="26" as="geometry" />
        </mxCell>
        <mxCell id="yGgz9N2xFHgXJwQMNSEJ-38" value="1" style="rounded=0;whiteSpace=wrap;html=1;fillColor=#ffffff;" vertex="1" parent="1">
          <mxGeometry x="466" y="673" width="56" height="26" as="geometry" />
        </mxCell>
        <mxCell id="yGgz9N2xFHgXJwQMNSEJ-39" value="9" style="rounded=0;whiteSpace=wrap;html=1;fillColor=#ffffff;" vertex="1" parent="1">
          <mxGeometry x="578" y="673" width="56" height="26" as="geometry" />
        </mxCell>
        <mxCell id="yGgz9N2xFHgXJwQMNSEJ-40" value="11" style="rounded=0;whiteSpace=wrap;html=1;fillColor=#f8cecc;strokeColor=#b85450;" vertex="1" parent="1">
          <mxGeometry x="634" y="673" width="56" height="26" as="geometry" />
        </mxCell>
        <mxCell id="yGgz9N2xFHgXJwQMNSEJ-41" style="edgeStyle=none;rounded=0;orthogonalLoop=1;jettySize=auto;html=1;exitX=0;exitY=1;exitDx=0;exitDy=0;entryX=1;entryY=0;entryDx=0;entryDy=0;" edge="1" parent="1" source="yGgz9N2xFHgXJwQMNSEJ-43" target="yGgz9N2xFHgXJwQMNSEJ-44">
          <mxGeometry relative="1" as="geometry" />
        </mxCell>
        <mxCell id="yGgz9N2xFHgXJwQMNSEJ-42" style="edgeStyle=none;rounded=0;orthogonalLoop=1;jettySize=auto;html=1;exitX=1;exitY=1;exitDx=0;exitDy=0;entryX=0.5;entryY=0;entryDx=0;entryDy=0;" edge="1" parent="1" source="yGgz9N2xFHgXJwQMNSEJ-43" target="yGgz9N2xFHgXJwQMNSEJ-40">
          <mxGeometry relative="1" as="geometry">
            <mxPoint x="632.800048828125" y="672.5999755859375" as="targetPoint" />
          </mxGeometry>
        </mxCell>
        <mxCell id="yGgz9N2xFHgXJwQMNSEJ-43" value="2" style="rounded=0;whiteSpace=wrap;html=1;fillColor=#ffffff;" vertex="1" parent="1">
          <mxGeometry x="539" y="588" width="56" height="26" as="geometry" />
        </mxCell>
        <mxCell id="yGgz9N2xFHgXJwQMNSEJ-44" value="0" style="rounded=0;whiteSpace=wrap;html=1;" vertex="1" parent="1">
          <mxGeometry x="410" y="673" width="56" height="26" as="geometry" />
        </mxCell>
        <mxCell id="yGgz9N2xFHgXJwQMNSEJ-45" value="12" style="rounded=0;whiteSpace=wrap;html=1;fillColor=#ffffff;" vertex="1" parent="1">
          <mxGeometry x="690" y="673" width="56" height="26" as="geometry" />
        </mxCell>
        <mxCell id="yGgz9N2xFHgXJwQMNSEJ-46" value="1" style="rounded=0;whiteSpace=wrap;html=1;fillColor=#ffffff;" vertex="1" parent="1">
          <mxGeometry x="120" y="853" width="56" height="26" as="geometry" />
        </mxCell>
        <mxCell id="yGgz9N2xFHgXJwQMNSEJ-47" value="9" style="rounded=0;whiteSpace=wrap;html=1;fillColor=#ffffff;" vertex="1" parent="1">
          <mxGeometry x="232" y="853" width="56" height="26" as="geometry" />
        </mxCell>
        <mxCell id="yGgz9N2xFHgXJwQMNSEJ-48" value="11" style="rounded=0;whiteSpace=wrap;html=1;" vertex="1" parent="1">
          <mxGeometry x="288" y="853" width="56" height="26" as="geometry" />
        </mxCell>
        <mxCell id="yGgz9N2xFHgXJwQMNSEJ-49" style="edgeStyle=none;rounded=0;orthogonalLoop=1;jettySize=auto;html=1;exitX=0;exitY=1;exitDx=0;exitDy=0;entryX=1;entryY=0;entryDx=0;entryDy=0;" edge="1" parent="1" source="yGgz9N2xFHgXJwQMNSEJ-51" target="yGgz9N2xFHgXJwQMNSEJ-52">
          <mxGeometry relative="1" as="geometry" />
        </mxCell>
        <mxCell id="yGgz9N2xFHgXJwQMNSEJ-50" style="edgeStyle=none;rounded=0;orthogonalLoop=1;jettySize=auto;html=1;exitX=1;exitY=1;exitDx=0;exitDy=0;entryX=0.5;entryY=0;entryDx=0;entryDy=0;" edge="1" parent="1" source="yGgz9N2xFHgXJwQMNSEJ-51" target="yGgz9N2xFHgXJwQMNSEJ-48">
          <mxGeometry relative="1" as="geometry">
            <mxPoint x="286.800048828125" y="852.5999755859375" as="targetPoint" />
          </mxGeometry>
        </mxCell>
        <mxCell id="yGgz9N2xFHgXJwQMNSEJ-51" value="2" style="rounded=0;whiteSpace=wrap;html=1;fillColor=#ffffff;" vertex="1" parent="1">
          <mxGeometry x="193" y="768" width="56" height="26" as="geometry" />
        </mxCell>
        <mxCell id="yGgz9N2xFHgXJwQMNSEJ-52" value="0" style="rounded=0;whiteSpace=wrap;html=1;" vertex="1" parent="1">
          <mxGeometry x="64" y="853" width="56" height="26" as="geometry" />
        </mxCell>
        <mxCell id="yGgz9N2xFHgXJwQMNSEJ-53" value="12" style="rounded=0;whiteSpace=wrap;html=1;fillColor=#ffffff;" vertex="1" parent="1">
          <mxGeometry x="344" y="853" width="56" height="26" as="geometry" />
        </mxCell>
        <mxCell id="yGgz9N2xFHgXJwQMNSEJ-54" value="1" style="rounded=0;whiteSpace=wrap;html=1;fillColor=#ffffff;" vertex="1" parent="1">
          <mxGeometry x="500" y="853" width="56" height="26" as="geometry" />
        </mxCell>
        <mxCell id="yGgz9N2xFHgXJwQMNSEJ-55" value="9" style="rounded=0;whiteSpace=wrap;html=1;fillColor=#ffffff;" vertex="1" parent="1">
          <mxGeometry x="662" y="853" width="56" height="26" as="geometry" />
        </mxCell>
        <mxCell id="yGgz9N2xFHgXJwQMNSEJ-56" value="11" style="rounded=0;whiteSpace=wrap;html=1;" vertex="1" parent="1">
          <mxGeometry x="718" y="853" width="56" height="26" as="geometry" />
        </mxCell>
        <mxCell id="yGgz9N2xFHgXJwQMNSEJ-57" style="edgeStyle=none;rounded=0;orthogonalLoop=1;jettySize=auto;html=1;exitX=0;exitY=1;exitDx=0;exitDy=0;entryX=1;entryY=0;entryDx=0;entryDy=0;" edge="1" parent="1" source="yGgz9N2xFHgXJwQMNSEJ-59" target="yGgz9N2xFHgXJwQMNSEJ-60">
          <mxGeometry relative="1" as="geometry" />
        </mxCell>
        <mxCell id="yGgz9N2xFHgXJwQMNSEJ-58" style="edgeStyle=none;rounded=0;orthogonalLoop=1;jettySize=auto;html=1;exitX=1;exitY=1;exitDx=0;exitDy=0;entryX=0.5;entryY=0;entryDx=0;entryDy=0;" edge="1" parent="1" source="yGgz9N2xFHgXJwQMNSEJ-59" target="yGgz9N2xFHgXJwQMNSEJ-56">
          <mxGeometry relative="1" as="geometry">
            <mxPoint x="666.800048828125" y="852.5999755859375" as="targetPoint" />
          </mxGeometry>
        </mxCell>
        <mxCell id="yGgz9N2xFHgXJwQMNSEJ-59" value="2" style="rounded=0;whiteSpace=wrap;html=1;fillColor=#ffffff;" vertex="1" parent="1">
          <mxGeometry x="599" y="768" width="56" height="26" as="geometry" />
        </mxCell>
        <mxCell id="yGgz9N2xFHgXJwQMNSEJ-60" value="0" style="rounded=0;whiteSpace=wrap;html=1;" vertex="1" parent="1">
          <mxGeometry x="444" y="853" width="56" height="26" as="geometry" />
        </mxCell>
        <mxCell id="yGgz9N2xFHgXJwQMNSEJ-61" value="12" style="rounded=0;whiteSpace=wrap;html=1;fillColor=#ffffff;" vertex="1" parent="1">
          <mxGeometry x="774" y="853" width="56" height="26" as="geometry" />
        </mxCell>
        <mxCell id="yGgz9N2xFHgXJwQMNSEJ-62" value="7" style="rounded=0;whiteSpace=wrap;html=1;fillColor=#f8cecc;strokeColor=#b85450;" vertex="1" parent="1">
          <mxGeometry x="606" y="853" width="56" height="26" as="geometry" />
        </mxCell>
        <mxCell id="yGgz9N2xFHgXJwQMNSEJ-63" value="1" style="rounded=0;whiteSpace=wrap;html=1;fillColor=#ffffff;" vertex="1" parent="1">
          <mxGeometry x="948" y="851" width="56" height="26" as="geometry" />
        </mxCell>
        <mxCell id="yGgz9N2xFHgXJwQMNSEJ-73" style="edgeStyle=none;rounded=0;orthogonalLoop=1;jettySize=auto;html=1;exitX=1;exitY=1;exitDx=0;exitDy=0;entryX=0;entryY=0;entryDx=0;entryDy=0;" edge="1" parent="1" source="yGgz9N2xFHgXJwQMNSEJ-64" target="yGgz9N2xFHgXJwQMNSEJ-70">
          <mxGeometry relative="1" as="geometry" />
        </mxCell>
        <mxCell id="yGgz9N2xFHgXJwQMNSEJ-64" value="9" style="rounded=0;whiteSpace=wrap;html=1;fillColor=#ffffff;" vertex="1" parent="1">
          <mxGeometry x="1076" y="766" width="56" height="26" as="geometry" />
        </mxCell>
        <mxCell id="yGgz9N2xFHgXJwQMNSEJ-65" value="11" style="rounded=0;whiteSpace=wrap;html=1;" vertex="1" parent="1">
          <mxGeometry x="1139" y="851" width="56" height="26" as="geometry" />
        </mxCell>
        <mxCell id="yGgz9N2xFHgXJwQMNSEJ-66" style="edgeStyle=none;rounded=0;orthogonalLoop=1;jettySize=auto;html=1;exitX=0;exitY=1;exitDx=0;exitDy=0;entryX=1;entryY=0;entryDx=0;entryDy=0;" edge="1" parent="1" source="yGgz9N2xFHgXJwQMNSEJ-68" target="yGgz9N2xFHgXJwQMNSEJ-69">
          <mxGeometry relative="1" as="geometry" />
        </mxCell>
        <mxCell id="yGgz9N2xFHgXJwQMNSEJ-72" style="edgeStyle=none;rounded=0;orthogonalLoop=1;jettySize=auto;html=1;exitX=1;exitY=1;exitDx=0;exitDy=0;entryX=0.5;entryY=0;entryDx=0;entryDy=0;" edge="1" parent="1" source="yGgz9N2xFHgXJwQMNSEJ-68" target="yGgz9N2xFHgXJwQMNSEJ-71">
          <mxGeometry relative="1" as="geometry" />
        </mxCell>
        <mxCell id="yGgz9N2xFHgXJwQMNSEJ-68" value="2" style="rounded=0;whiteSpace=wrap;html=1;fillColor=#ffffff;" vertex="1" parent="1">
          <mxGeometry x="1020" y="766" width="56" height="26" as="geometry" />
        </mxCell>
        <mxCell id="yGgz9N2xFHgXJwQMNSEJ-69" value="0" style="rounded=0;whiteSpace=wrap;html=1;" vertex="1" parent="1">
          <mxGeometry x="892" y="851" width="56" height="26" as="geometry" />
        </mxCell>
        <mxCell id="yGgz9N2xFHgXJwQMNSEJ-70" value="12" style="rounded=0;whiteSpace=wrap;html=1;fillColor=#ffffff;" vertex="1" parent="1">
          <mxGeometry x="1195" y="851" width="56" height="26" as="geometry" />
        </mxCell>
        <mxCell id="yGgz9N2xFHgXJwQMNSEJ-71" value="7" style="rounded=0;whiteSpace=wrap;html=1;" vertex="1" parent="1">
          <mxGeometry x="1048" y="851" width="56" height="26" as="geometry" />
        </mxCell>
        <mxCell id="yGgz9N2xFHgXJwQMNSEJ-74" value="1" style="rounded=0;whiteSpace=wrap;html=1;fillColor=#ffffff;" vertex="1" parent="1">
          <mxGeometry x="84.5" y="1055" width="56" height="26" as="geometry" />
        </mxCell>
        <mxCell id="yGgz9N2xFHgXJwQMNSEJ-75" style="edgeStyle=none;rounded=0;orthogonalLoop=1;jettySize=auto;html=1;exitX=1;exitY=1;exitDx=0;exitDy=0;entryX=0;entryY=0;entryDx=0;entryDy=0;" edge="1" parent="1" source="yGgz9N2xFHgXJwQMNSEJ-76" target="yGgz9N2xFHgXJwQMNSEJ-82">
          <mxGeometry relative="1" as="geometry" />
        </mxCell>
        <mxCell id="yGgz9N2xFHgXJwQMNSEJ-76" value="9" style="rounded=0;whiteSpace=wrap;html=1;fillColor=#ffffff;" vertex="1" parent="1">
          <mxGeometry x="212.5" y="970" width="56" height="26" as="geometry" />
        </mxCell>
        <mxCell id="yGgz9N2xFHgXJwQMNSEJ-77" value="11" style="rounded=0;whiteSpace=wrap;html=1;" vertex="1" parent="1">
          <mxGeometry x="275.5" y="1055" width="56" height="26" as="geometry" />
        </mxCell>
        <mxCell id="yGgz9N2xFHgXJwQMNSEJ-78" style="edgeStyle=none;rounded=0;orthogonalLoop=1;jettySize=auto;html=1;exitX=0;exitY=1;exitDx=0;exitDy=0;entryX=1;entryY=0;entryDx=0;entryDy=0;" edge="1" parent="1" source="yGgz9N2xFHgXJwQMNSEJ-80" target="yGgz9N2xFHgXJwQMNSEJ-81">
          <mxGeometry relative="1" as="geometry" />
        </mxCell>
        <mxCell id="yGgz9N2xFHgXJwQMNSEJ-79" style="edgeStyle=none;rounded=0;orthogonalLoop=1;jettySize=auto;html=1;exitX=1;exitY=1;exitDx=0;exitDy=0;entryX=0.5;entryY=0;entryDx=0;entryDy=0;" edge="1" parent="1" source="yGgz9N2xFHgXJwQMNSEJ-80" target="yGgz9N2xFHgXJwQMNSEJ-83">
          <mxGeometry relative="1" as="geometry" />
        </mxCell>
        <mxCell id="yGgz9N2xFHgXJwQMNSEJ-80" value="2" style="rounded=0;whiteSpace=wrap;html=1;fillColor=#ffffff;" vertex="1" parent="1">
          <mxGeometry x="156.5" y="970" width="56" height="26" as="geometry" />
        </mxCell>
        <mxCell id="yGgz9N2xFHgXJwQMNSEJ-81" value="0" style="rounded=0;whiteSpace=wrap;html=1;" vertex="1" parent="1">
          <mxGeometry x="28.5" y="1055" width="56" height="26" as="geometry" />
        </mxCell>
        <mxCell id="yGgz9N2xFHgXJwQMNSEJ-82" value="12" style="rounded=0;whiteSpace=wrap;html=1;fillColor=#ffffff;" vertex="1" parent="1">
          <mxGeometry x="331.5" y="1055" width="56" height="26" as="geometry" />
        </mxCell>
        <mxCell id="yGgz9N2xFHgXJwQMNSEJ-83" value="7" style="rounded=0;whiteSpace=wrap;html=1;" vertex="1" parent="1">
          <mxGeometry x="184.5" y="1055" width="56" height="26" as="geometry" />
        </mxCell>
        <mxCell id="yGgz9N2xFHgXJwQMNSEJ-84" value="1" style="rounded=0;whiteSpace=wrap;html=1;fillColor=#ffffff;" vertex="1" parent="1">
          <mxGeometry x="486" y="1055" width="56" height="26" as="geometry" />
        </mxCell>
        <mxCell id="yGgz9N2xFHgXJwQMNSEJ-85" style="edgeStyle=none;rounded=0;orthogonalLoop=1;jettySize=auto;html=1;exitX=1;exitY=1;exitDx=0;exitDy=0;entryX=0;entryY=0;entryDx=0;entryDy=0;" edge="1" parent="1" source="yGgz9N2xFHgXJwQMNSEJ-86" target="yGgz9N2xFHgXJwQMNSEJ-92">
          <mxGeometry relative="1" as="geometry" />
        </mxCell>
        <mxCell id="yGgz9N2xFHgXJwQMNSEJ-86" value="9" style="rounded=0;whiteSpace=wrap;html=1;fillColor=#ffffff;" vertex="1" parent="1">
          <mxGeometry x="614" y="970" width="56" height="26" as="geometry" />
        </mxCell>
        <mxCell id="yGgz9N2xFHgXJwQMNSEJ-87" value="11" style="rounded=0;whiteSpace=wrap;html=1;" vertex="1" parent="1">
          <mxGeometry x="677" y="1055" width="56" height="26" as="geometry" />
        </mxCell>
        <mxCell id="yGgz9N2xFHgXJwQMNSEJ-88" style="edgeStyle=none;rounded=0;orthogonalLoop=1;jettySize=auto;html=1;exitX=0;exitY=1;exitDx=0;exitDy=0;entryX=1;entryY=0;entryDx=0;entryDy=0;" edge="1" parent="1" source="yGgz9N2xFHgXJwQMNSEJ-90" target="yGgz9N2xFHgXJwQMNSEJ-91">
          <mxGeometry relative="1" as="geometry" />
        </mxCell>
        <mxCell id="yGgz9N2xFHgXJwQMNSEJ-89" style="edgeStyle=none;rounded=0;orthogonalLoop=1;jettySize=auto;html=1;exitX=1;exitY=1;exitDx=0;exitDy=0;entryX=0.5;entryY=0;entryDx=0;entryDy=0;" edge="1" parent="1" source="yGgz9N2xFHgXJwQMNSEJ-90" target="yGgz9N2xFHgXJwQMNSEJ-93">
          <mxGeometry relative="1" as="geometry" />
        </mxCell>
        <mxCell id="yGgz9N2xFHgXJwQMNSEJ-90" value="2" style="rounded=0;whiteSpace=wrap;html=1;fillColor=#ffffff;" vertex="1" parent="1">
          <mxGeometry x="558" y="970" width="56" height="26" as="geometry" />
        </mxCell>
        <mxCell id="yGgz9N2xFHgXJwQMNSEJ-91" value="0" style="rounded=0;whiteSpace=wrap;html=1;" vertex="1" parent="1">
          <mxGeometry x="430" y="1055" width="56" height="26" as="geometry" />
        </mxCell>
        <mxCell id="yGgz9N2xFHgXJwQMNSEJ-92" value="12" style="rounded=0;whiteSpace=wrap;html=1;fillColor=#ffffff;" vertex="1" parent="1">
          <mxGeometry x="733" y="1055" width="56" height="26" as="geometry" />
        </mxCell>
        <mxCell id="yGgz9N2xFHgXJwQMNSEJ-93" value="7" style="rounded=0;whiteSpace=wrap;html=1;" vertex="1" parent="1">
          <mxGeometry x="586" y="1055" width="56" height="26" as="geometry" />
        </mxCell>
        <mxCell id="yGgz9N2xFHgXJwQMNSEJ-94" value="19" style="rounded=0;whiteSpace=wrap;html=1;fillColor=#ffffff;" vertex="1" parent="1">
          <mxGeometry x="789" y="1055" width="56" height="26" as="geometry" />
        </mxCell>
      </root>
    </mxGraphModel>
  </diagram>
</mxfile>
